:SAMPLES-PER-SECOND 30
:FULLY-SPECIFIED
:DEGREES
80
root  -15.5989 26.5289 -3.25112 144.172 86.9268 147.869
RightUpLeg  -67.5821 -8.74186 4.62014
RightLeg  91.9398 10.7669 4.07168
RightFoot  -16.2948 0.0134033 -2.32715
RightToes  2.21189e-009 -3.18055e-015 8.94531e-016
Spine  51.7025 -2.6729 0.925269
Spine1  0.279102 -0.697269 -2.10093
HEad  -29.1455 -2.47242 1.52081
LeftShoulder1  0 0 -2.47967e-037
LeftArm  -10.8878 -45.9439 -67.1818
LeftForeArm  -134.643 -49.4747 168.822
LeftHand  0.288393 4.83144 15.5507
RightShoulder  -2.48481e-017 0 -8.08114e-019
RightArm  -3.07327 39.4415 70.6044
RightForeArm  -93.4289 47.5588 -153.11
RightHand  2.94961 -14.4446 -20.7937
LeftUpLeg  -68.9585 0.482355 -4.2786
LeftLeg  91.7308 -12.9938 0.346017
LeftFoot  -16.867 -0.263928 -6.98291
LeftToes  -2.77942e-009 -2.0471e-010 1.20669e-012
81
root  -14.5584 24.8113 -3.27556 140.56 85.752 145.437
RightUpLeg  -69.1627 -7.30847 2.97272
RightLeg  97.9284 10.7805 2.49355
RightFoot  -19.0926 -0.337702 -6.96806
RightToes  2.21189e-009 -3.18055e-015 8.94531e-016
Spine  53.1226 -2.87026 1.26973
Spine1  0.302271 -0.745646 -2.05672
HEad  -31.3001 -3.56616 1.5496
LeftShoulder1  0 0 -2.47967e-037
LeftArm  -10.0086 -46.5079 -68.7693
LeftForeArm  -134.213 -49.6289 168.675
LeftHand  0.299102 4.83981 15.1689
RightShoulder  -2.48481e-017 0 -8.08114e-019
RightArm  -3.25718 40.1363 70.3974
RightForeArm  -92.8839 47.3428 -153.371
RightHand  3.12506 -15.0806 -20.6429
LeftUpLeg  -70.371 -0.91614 -5.14495
LeftLeg  93.3021 -13.0524 0.176257
LeftFoot  -17.1424 -0.16192 -3.53211
LeftToes  -2.77942e-009 -2.0471e-010 1.20669e-012
82
root  -13.4926 22.7362 -3.34721 144.836 85.3494 150.306
RightUpLeg  -72.1005 -6.22387 2.71044
RightLeg  106.881 11.4826 -0.29456
RightFoot  -26.0686 -0.648413 -5.75771
RightToes  2.21189e-009 -3.18055e-015 8.94531e-016
Spine  53.7065 -3.34231 2.53156
Spine1  -0.647529 -0.618553 -2.32837
HEad  -33.1337 -4.16903 1.23191
LeftShoulder1  0 0 -2.47967e-037
LeftArm  -9.61793 -46.2971 -70.2491
LeftForeArm  -134.394 -49.4864 168.795
LeftHand  0.352844 5.00705 14.8644
RightShoulder  -2.48481e-017 0 -8.08114e-019
RightArm  -3.6249 40.1765 71.0265
RightForeArm  -92.6093 47.0696 -153.728
RightHand  3.08291 -15.1414 -19.9017
LeftUpLeg  -73.5681 -1.99101 -5.44597
LeftLeg  100.566 -13.5465 1.04518
LeftFoot  -21.3072 -0.0279476 0.607969
LeftToes  -2.77942e-009 -2.0471e-010 1.20669e-012
83
root  -12.451 20.4963 -3.44294 153.945 86.0225 160.1
RightUpLeg  -75.2544 -5.09541 3.58658
RightLeg  115.588 12.4642 -1.78754
RightFoot  -30.8555 -0.867251 -5.62879
RightToes  2.21189e-009 -3.18055e-015 8.94531e-016
Spine  54.7341 -3.61039 3.84642
Spine1  -2.48474 -0.213281 -2.33595
HEad  -34.8692 -4.04077 0.525856
LeftShoulder1  0 0 -2.47967e-037
LeftArm  -10.3405 -45.9405 -70.4059
LeftForeArm  -133.79 -48.9814 169.123
LeftHand  0.293852 4.76919 14.6273
RightShoulder  -2.48481e-017 0 -8.08114e-019
RightArm  -4.29162 40.8997 71.8086
RightForeArm  -92.4314 47.0111 -153.795
RightHand  2.93325 -14.7793 -19.3499
LeftUpLeg  -78.1782 -1.91136 -4.97779
LeftLeg  110.467 -14.5749 2.00348
LeftFoot  -25.8868 0.123015 1.82581
LeftToes  -2.77942e-009 -2.0471e-010 1.20669e-012
84
root  -11.4416 18.3473 -3.50214 159.819 86.6567 167.2
RightUpLeg  -77.6405 -5.14331 4.69141
RightLeg  124.251 13.3621 -2.07459
RightFoot  -34.9025 -1.19766 -6.25181
RightToes  2.21189e-009 -3.18055e-015 8.94531e-016
Spine  56.0678 -3.28107 3.99682
Spine1  -3.67474 -0.117973 -1.18402
HEad  -37.41 -3.47556 0.654101
LeftShoulder1  0 0 -2.47967e-037
LeftArm  -11.6059 -46.5689 -69.6568
LeftForeArm  -132.637 -48.7803 169.184
LeftHand  0.217577 4.44082 14.1892
RightShoulder  -2.48481e-017 0 -8.08114e-019
RightArm  -4.53939 41.7654 72.9602
RightForeArm  -91.5464 47.0632 -153.661
RightHand  2.8843 -14.5699 -19.4599
LeftUpLeg  -81.9796 -1.59285 -4.28291
LeftLeg  119.471 -15.473 2.21513
LeftFoot  -28.6182 0.290075 2.82653
LeftToes  -2.77942e-009 -2.0471e-010 1.20669e-012
85
root  -10.4504 16.4392 -3.53765 169.17 86.5322 178.496
RightUpLeg  -79.1542 -6.30814 5.40106
RightLeg  132.805 13.392 -1.30195
RightFoot  -36.222 -1.15649 -5.71835
RightToes  2.21189e-009 -3.18055e-015 8.94531e-016
Spine  56.6663 -3.18236 3.82896
Spine1  -2.9246 -0.292273 -0.268622
HEad  -39.9557 -3.17913 1.30563
LeftShoulder1  0 0 -2.47967e-037
LeftArm  -12.0231 -47.9724 -69.7671
LeftForeArm  -131.204 -49.219 168.76
LeftHand  0.188871 4.29497 13.8411
RightShoulder  -2.48481e-017 0 -8.08114e-019
RightArm  -5.13076 42.4697 73.316
RightForeArm  -90.5661 47.1279 -153.503
RightHand  2.81331 -14.1645 -20.0707
LeftUpLeg  -84.5115 -1.36341 -3.70055
LeftLeg  127.875 -15.8301 1.40915
LeftFoot  -30.7292 0.307826 2.62152
LeftToes  -2.77942e-009 -2.0471e-010 1.20669e-012
86
root  -9.42661 14.9158 -3.54772 -179.86 86.8126 -168.005
RightUpLeg  -78.7631 -6.43263 5.01073
RightLeg  140.518 11.3264 0.890818
RightFoot  -35.9774 -0.801105 -4.01208
RightToes  2.21189e-009 -3.18055e-015 8.94531e-016
Spine  56.9462 -3.03833 3.70117
Spine1  -1.5131 -0.3768 0.0930079
HEad  -40.5898 -2.65066 1.57388
LeftShoulder1  0 0 -2.47967e-037
LeftArm  -11.673 -48.9614 -70.0714
LeftForeArm  -130.291 -49.9828 168.12
LeftHand  0.114389 4.03731 14.0365
RightShoulder  -2.48481e-017 0 -8.08114e-019
RightArm  -5.04619 42.6766 73.6971
RightForeArm  -89.5403 47.2439 -153.27
RightHand  2.79803 -14.0467 -20.3149
LeftUpLeg  -85.6216 -0.356575 -1.90132
LeftLeg  135.722 -14.4875 -0.605312
LeftFoot  -30.8134 0.143632 1.52358
LeftToes  -2.77942e-009 -2.0471e-010 1.20669e-012
87
root  -8.40522 14.1207 -3.55241 -169.447 87.06 -156.178
RightUpLeg  -76.5002 -6.23448 4.20513
RightLeg  145.432 9.04429 2.51332
RightFoot  -36.4173 -0.581435 -2.88466
RightToes  2.21189e-009 -3.18055e-015 8.94531e-016
Spine  56.5077 -2.79916 3.30818
Spine1  -0.909099 -0.610512 0.369593
HEad  -40.1027 -1.47029 1.84179
LeftShoulder1  0 0 -2.47967e-037
LeftArm  -10.7527 -49.5286 -70.4342
LeftForeArm  -129.05 -50.2332 167.831
LeftHand  -0.0568206 3.47535 14.6491
RightShoulder  -2.48481e-017 0 -8.08114e-019
RightArm  -4.26275 42.4929 74.3209
RightForeArm  -88.9911 47.0076 -153.557
RightHand  2.92646 -14.3361 -20.8888
LeftUpLeg  -84.9648 0.175597 0.533105
LeftLeg  141.261 -12.4208 -2.58097
LeftFoot  -30.7134 -0.11956 -0.194609
LeftToes  -2.77942e-009 -2.0471e-010 1.20669e-012
88
root  -7.46616 14.3839 -3.57583 -161.086 87.3628 -148.934
RightUpLeg  -73.4154 -6.15225 3.9698
RightLeg  146.299 8.23839 2.97024
RightFoot  -37.6255 -0.332442 -1.59632
RightToes  2.21189e-009 -3.18055e-015 8.94531e-016
Spine  54.9014 -2.45007 2.71703
Spine1  -0.790348 -0.791532 0.603305
HEad  -41.0078 -0.571073 2.37885
LeftShoulder1  0 0 -2.47967e-037
LeftArm  -9.96922 -50.204 -70.8044
LeftForeArm  -129.823 -49.267 168.632
LeftHand  0.017211 3.7886 14.9881
RightShoulder  -2.48481e-017 0 -8.08114e-019
RightArm  -3.77533 42.6556 74.0692
RightForeArm  -87.9545 46.0924 -154.731
RightHand  3.05834 -14.6312 -21.4843
LeftUpLeg  -82.6525 0.0549368 1.77336
LeftLeg  142.614 -11.7358 -3.04398
LeftFoot  -31.4356 -0.487923 -2.45861
LeftToes  -2.77942e-009 -2.0471e-010 1.20669e-012
89
root  -6.59562 15.6524 -3.57198 -166.235 87.9052 -156.759
RightUpLeg  -69.9718 -6.13723 3.45302
RightLeg  143.542 8.04685 3.29634
RightFoot  -37.5837 -0.0761076 -0.397637
RightToes  2.21189e-009 -3.18055e-015 8.94531e-016
Spine  53.1515 -1.84947 1.46078
Spine1  -1.464 -0.86541 0.582676
HEad  -42.7343 -0.0377837 2.72711
LeftShoulder1  0 0 -2.47967e-037
LeftArm  -9.83439 -50.3633 -70.6686
LeftForeArm  -131.077 -48.063 169.585
LeftHand  0.0773766 4.05838 15.3722
RightShoulder  -2.48481e-017 0 -8.08114e-019
RightArm  -3.97738 42.3228 73.6184
RightForeArm  -88.531 44.8532 -156.341
RightHand  2.9194 -14.4941 -20.207
LeftUpLeg  -78.4127 -0.0801283 2.27373
LeftLeg  140.358 -10.5137 -4.12242
LeftFoot  -32.113 -0.90219 -4.90237
LeftToes  -2.77942e-009 -2.0471e-010 1.20669e-012
90
root  -5.58268 17.4895 -3.52244 178.081 88.4275 -174.98
RightUpLeg  -65.122 -6.16685 3.04775
RightLeg  138.45 8.63199 3.17984
RightFoot  -36.9362 0.240541 1.07034
RightToes  2.21189e-009 -3.18055e-015 8.94531e-016
Spine  51.4885 -1.19098 0.123896
Spine1  -2.4997 -0.874344 0.427608
HEad  -42.9106 0.00968567 2.87952
LeftShoulder1  0 0 -2.47967e-037
LeftArm  -10.4888 -50.2269 -69.6799
LeftForeArm  -131.714 -47.8304 169.793
LeftHand  0.0808703 4.07663 15.4323
RightShoulder  -2.48481e-017 0 -8.08114e-019
RightArm  -5.12392 42.444 72.4335
RightForeArm  -88.9944 45.1742 -155.984
RightHand  3.07639 -14.6715 -21.5494
LeftUpLeg  -72.2724 -0.0806345 2.49992
LeftLeg  135.909 -9.65005 -5.1769
LeftFoot  -32.1869 -1.19674 -6.64327
LeftToes  -2.77942e-009 -2.0471e-010 1.20669e-012
91
root  -4.3257 19.504 -3.47098 173.394 88.7153 178.481
RightUpLeg  -59.1275 -6.31965 3.36852
RightLeg  132.111 10.2387 1.93032
RightFoot  -35.7007 0.525584 2.54024
RightToes  2.21189e-009 -3.18055e-015 8.94531e-016
Spine  49.1402 -0.74343 -0.706691
Spine1  -2.92287 -0.913227 0.535714
HEad  -40.7824 -0.241123 2.74439
LeftShoulder1  0 0 -2.47967e-037
LeftArm  -11.519 -49.6868 -68.0917
LeftForeArm  -132.948 -48.2416 169.592
LeftHand  0.189773 4.43313 15.0964
RightShoulder  -2.48481e-017 0 -8.08114e-019
RightArm  -5.08047 42.1065 72.223
RightForeArm  -88.2204 46.0631 -154.774
RightHand  3.30687 -14.9943 -23.1718
LeftUpLeg  -65.1605 -0.169303 2.26991
LeftLeg  130.2 -10.644 -4.66336
LeftFoot  -31.9478 -1.45398 -8.27157
LeftToes  -2.77942e-009 -2.0471e-010 1.20669e-012
92
root  -2.87749 21.4379 -3.40271 -172.596 88.6342 -169.001
RightUpLeg  -54.2254 -6.97072 4.0294
RightLeg  125.906 11.568 0.405909
RightFoot  -30.5161 0.62762 4.17359
RightToes  2.21189e-009 -3.18055e-015 8.94531e-016
Spine  46.3624 -0.693642 -1.02379
Spine1  -3.82471 -1.09133 0.58619
HEad  -36.0407 -0.234565 3.16064
LeftShoulder1  0 0 -2.47967e-037
LeftArm  -11.1871 -47.6128 -67.1055
LeftForeArm  -133.688 -48.5491 169.425
LeftHand  0.241194 4.61228 15.0226
RightShoulder  -2.48481e-017 0 -8.08114e-019
RightArm  -3.73383 39.9223 73.133
RightForeArm  -88.9619 46.2943 -154.522
RightHand  3.27186 -15.0207 -22.643
LeftUpLeg  -58.884 -0.270958 2.67363
LeftLeg  124.474 -11.5794 -3.96756
LeftFoot  -29.7436 -1.60215 -10.5915
LeftToes  -2.77942e-009 -2.0471e-010 1.20669e-012
93
root  -1.32587 23.1438 -3.31461 -155.43 88.4742 -152.963
RightUpLeg  -51.7794 -7.52567 4.47212
RightLeg  121.075 12.3732 -1.02728
RightFoot  -19.0305 0.310255 5.05854
RightToes  2.21189e-009 -3.18055e-015 8.94531e-016
Spine  43.705 -0.757489 -1.21145
Spine1  -4.68844 -1.26097 0.600484
HEad  -30.8493 -0.223572 3.86135
LeftShoulder1  0 0 -2.47967e-037
LeftArm  -10.5548 -45.2762 -66.4168
LeftForeArm  -135.425 -48.2855 169.739
LeftHand  0.373254 5.06329 14.5891
RightShoulder  -2.48481e-017 0 -8.08114e-019
RightArm  -2.55197 37.2159 73.8745
RightForeArm  -90.5503 46.1737 -154.788
RightHand  3.1937 -14.9617 -21.9201
LeftUpLeg  -54.5985 -0.132362 3.50313
LeftLeg  119.625 -12.5342 -2.64372
LeftFoot  -22.4429 -1.0187 -12.2503
LeftToes  -2.77942e-009 -2.0471e-010 1.20669e-012
94
root  0.101505 24.492 -3.24375 -145.767 88.3957 -143.496
RightUpLeg  -51.9868 -7.45181 4.44939
RightLeg  118.025 13.0651 -2.49633
RightFoot  -1.94134 -0.732952 6.41294
RightToes  2.21189e-009 -3.18055e-015 8.94531e-016
Spine  42.0465 -0.724076 -1.46629
Spine1  -4.1691 -1.34628 0.925089
HEad  -28.2684 -0.138368 3.71209
LeftShoulder1  0 0 -2.47967e-037
LeftArm  -11.263 -44.2304 -64.7391
LeftForeArm  -137.615 -47.9574 170.123
LeftHand  0.508241 5.55277 14.5406
RightShoulder  -2.48481e-017 0 -8.08114e-019
RightArm  -2.53482 36.4905 73.3876
RightForeArm  -92.4727 45.9933 -155.151
RightHand  3.27308 -15.2885 -21.6655
LeftUpLeg  -52.7521 -0.0875574 4.10084
LeftLeg  116.323 -13.7561 -0.428223
LeftFoot  -9.20232 0.37312 -11.2001
LeftToes  -2.77942e-009 -2.0471e-010 1.20669e-012
